<?xml version="1.0" encoding="utf-8"?>

<!DOCTYPE svg PUBLIC "-//W3C//DTD SVG 1.1//EN" "http://www.w3.org/Graphics/SVG/1.1/DTD/svg11.dtd">
<!-- Uploaded to: SVG Repo, www.svgrepo.com, Generator: SVG Repo Mixer Tools -->
<svg version="1.1" id="_x32_" xmlns="http://www.w3.org/2000/svg" xmlns:xlink="http://www.w3.org/1999/xlink" 
	 width="800px" height="800px" viewBox="0 0 512 512"  xml:space="preserve">
<style type="text/css">
<![CDATA[
	.st0{fill:#000000;}
]]>
</style>
<g>
	<path class="st0" d="M341.938,207.453c21.984-21.984,35.594-52.359,35.594-85.922s-13.609-63.938-35.594-85.938
		C319.938,13.609,289.547,0,256,0c-33.563,0-63.938,13.609-85.938,35.594c-21.984,22-35.594,52.375-35.594,85.938
		s13.609,63.938,35.594,85.922c17.359,17.359,37.813,44.875,63.828,55.75c-10.703,10.75-34.375,22.953-40.031,65.453
		c-6.984,52.344-7.078,50.656-10.469,72.125c-3.5,22.094,17.438,33.719,25.578,9.297L219.453,356v42.281l4.484,100.344
		c-0.906,6.406,3.531,12.344,9.953,13.281c0.578,0.063,1.125,0.094,1.688,0.094c5.734,0,10.734-4.219,11.578-10.063L256,404.563
		l11.734,97.375c0.844,5.844,5.844,10.063,11.578,10.063c0.563,0,1.125-0.031,1.688-0.094c6.422-0.938,10.875-6.875,9.953-13.281
		l1.594-100.344V356l10.469,54.078c8.156,24.422,29.078,12.797,25.594-9.297c-3.391-21.469-3.5-19.781-10.469-72.125
		c-5.672-42.5-29.328-54.703-40.047-65.453C304.125,252.328,324.578,224.813,341.938,207.453z M273.172,196.5
		c3.953,0,7.156,3.203,7.156,7.156c0,3.938-3.203,7.156-7.156,7.156s-7.156-3.219-7.156-7.156
		C266.016,199.703,269.219,196.5,273.172,196.5z M245.984,203.656c0,3.938-3.203,7.156-7.156,7.156s-7.156-3.219-7.156-7.156
		c0-3.953,3.203-7.156,7.156-7.156S245.984,199.703,245.984,203.656z M174.766,157.078c-12.875-9.891-18.469-27.391-20.953-39.734
		c-1.406-7.109,0.359-11.359,5.344-12.594c15.922-3.906,35.438,0.219,48.594,8.328c16.203,9.984,25.141,25.766,28.75,44.703
		c1.422,7.469-2.125,10.922-6.609,11.344C210.203,170.969,188.938,167.969,174.766,157.078z M276.641,237.344h-41.297
		c-3.484,0-6.313-2.813-6.313-6.313c0-3.469,2.828-6.313,6.313-6.313h41.297c3.5,0,6.313,2.844,6.313,6.313
		C282.953,234.531,280.141,237.344,276.641,237.344z M282.109,169.125c-4.484-0.422-8.031-3.875-6.609-11.344
		c3.609-18.938,12.547-34.719,28.734-44.703c13.172-8.109,32.688-12.234,48.594-8.328c4.984,1.234,6.766,5.484,5.344,12.594
		c-2.469,12.344-8.063,29.844-20.938,39.734C323.063,167.969,301.797,170.969,282.109,169.125z"/>
</g>
</svg>