<svg width="778" height="778" viewBox="0 0 778 778" fill="none" xmlns="http://www.w3.org/2000/svg">
<mask id="mask0_50_3087" style="mask-type:luminance" maskUnits="userSpaceOnUse" x="1" y="1" width="775" height="776">
<path d="M288.68 763.216C495.059 818.515 707.232 695.878 762.585 489.299C817.938 282.72 695.509 70.4263 489.13 15.1273C282.751 -40.1717 70.5776 82.4656 15.2249 289.045C-40.1278 495.623 82.3013 707.917 288.68 763.216Z" fill="white"/>
</mask>
<g mask="url(#mask0_50_3087)">
<path d="M288.68 763.216C495.059 818.515 707.237 695.879 762.589 489.3C817.942 282.721 695.509 70.4263 489.13 15.1273C282.751 -40.1717 70.5776 82.4653 15.225 289.044C-40.1277 495.623 82.3014 707.917 288.68 763.216Z" fill="#EDC18C"/>
<g style="mix-blend-mode:multiply">
<path d="M-16.7313 432.059C-16.9863 425.068 -15.1354 418.16 -11.4189 412.233C-2.41863 399.77 17.5658 404.417 29.1765 413.903C55.8278 435.919 61.3217 473.514 75.5426 504.949C91.5741 541.088 119.766 570.448 155.208 587.917C159.731 590.198 164.673 591.522 169.731 591.808C188.49 590.46 192.274 563.142 208.36 553.286C215.792 550.278 224.001 549.774 231.743 551.849C239.485 553.923 246.342 558.464 251.275 564.785C262.178 576.914 268.715 592.123 278.957 604.076C284.171 610.225 291.136 614.638 298.921 616.723C306.706 618.809 314.939 618.469 322.529 615.751C326.576 612.771 331.03 610.387 335.751 608.67C341.379 608.044 347.035 609.559 351.596 612.915C364.14 616.276 375.091 625.585 387.104 630.929C407.865 638.99 430.556 640.679 452.286 635.778C474.016 630.878 493.799 619.611 509.109 603.415C514.5 597.968 518.289 591.141 520.059 583.683C522.715 573.77 515.95 562.041 518.783 551.467C520.866 545.501 524.59 540.245 529.527 536.305C534.465 532.364 540.413 529.9 546.687 529.196C559.327 526.916 572.223 528.955 584.864 526.675C598.244 523.525 610.367 516.413 619.65 506.265C628.933 496.117 634.947 483.405 636.904 469.789C639.365 442.116 624.566 415.486 624.032 388.427C623.547 383.736 624.808 379.03 627.573 375.21C628.99 369.923 638.589 371.079 643.919 369.674C649.466 367.647 654.333 364.098 657.961 359.433C661.589 354.768 663.831 349.175 664.431 343.296C665.576 331.55 664.423 319.694 661.044 308.39C647.36 253.657 629.826 199.964 608.571 147.711C605.775 143.125 603.938 138.018 603.174 132.699C602.409 127.381 602.734 121.961 604.125 116.77C606.781 106.858 624.752 103.174 628.569 112.696C632.465 98.1573 647.227 87.9469 662.283 89.8562C677.184 93.3922 690.824 100.968 701.704 111.752C724.933 129.264 745.326 150.257 762.159 173.991C774.414 193.299 782.827 214.793 786.944 237.296C796.341 281.663 799.641 327.109 796.746 372.375C794.711 426.878 788.91 481.177 779.384 534.882C772.784 594.681 749.014 651.294 710.947 697.87C688.373 720.754 661.813 739.322 632.579 752.66C527.035 803.678 406.471 814.166 293.754 782.136C181.037 750.105 84.0061 677.785 21.0582 578.887C-10.4807 536.399 -23.9397 483.14 -16.3773 430.738L-16.7313 432.059Z" fill="#EDC18C"/>
</g>
</g>
</svg>
