<svg width="778" height="778" viewBox="0 0 778 778" fill="none" xmlns="http://www.w3.org/2000/svg">
<mask id="mask0_50_2764" style="mask-type:luminance" maskUnits="userSpaceOnUse" x="0" y="-1" width="778" height="780">
<path d="M280.226 15.3933C354.167 -6.16255 432.837 -5.26412 506.267 17.9747C579.698 41.2135 644.585 85.7469 692.707 145.933C740.83 206.118 770.022 279.248 776.585 356.055C783.148 432.863 766.786 509.892 729.574 577.384C692.361 644.875 635.971 699.791 567.55 735.174C499.128 770.557 421.753 784.816 345.229 776.141C268.705 767.467 196.475 736.252 137.69 686.45C78.9058 636.648 36.2125 570.5 15.0196 496.388C-13.2853 397.406 -1.27365 291.231 48.427 201.091C98.1276 110.951 181.471 44.1829 280.226 15.3933Z" fill="white"/>
</mask>
<g mask="url(#mask0_50_2764)">
<path d="M280.226 15.3933C354.167 -6.16255 432.837 -5.26412 506.267 17.9747C579.698 41.2135 644.585 85.7469 692.707 145.933C740.83 206.118 770.022 279.248 776.585 356.055C783.148 432.863 766.786 509.892 729.574 577.384C692.361 644.875 635.971 699.791 567.55 735.174C499.128 770.557 421.753 784.816 345.229 776.141C268.705 767.467 196.475 736.252 137.69 686.45C78.9058 636.648 36.2125 570.5 15.0196 496.388C-13.2853 397.406 -1.27365 291.231 48.427 201.091C98.1276 110.951 181.471 44.1829 280.226 15.3933Z" fill="#5CB5E2"/>
<g style="mix-blend-mode:multiply">
<path d="M905.601 246.958C911.447 247.024 917.181 245.349 922.076 242.148C930.771 235.276 929.627 221.763 926.653 210.998C903.77 123.045 830.547 55.9343 750.688 11.9577C544.747 -102.565 293.041 -83.5544 57.8107 -62.0242C162.071 16.5555 283.605 69.018 412.258 90.9785C343.611 133.352 253.683 117.776 178.172 88.4587C102.66 59.1409 29.6654 17.4548 -50.6516 10.5835C-78.7968 8.29301 -138.52 23.1812 -131.426 62.3479C-125.706 93.498 -41.0409 112.508 -17.0145 121.899C276.813 233.466 592.251 276.245 905.143 246.958H905.601Z" fill="#5CB5E2"/>
</g>
<g style="mix-blend-mode:multiply">
<path d="M51.861 408.205C105.26 441.288 161.646 469.279 220.275 491.807C295.393 514.943 373.112 528.563 451.615 532.347C587.536 543.8 723.838 550.824 860.522 553.42C880.201 626.714 839.47 706.422 779.061 752.231C718.652 798.04 641.767 816.134 566.713 828.045C474.234 842.464 380.663 848.672 287.091 846.597C258.129 847.22 229.249 843.278 201.511 834.916C171.368 822.668 143.516 805.398 119.135 783.839C66.6465 743.891 19.1657 697.748 -22.2778 646.412C-76.6242 576.897 -110.326 493.474 -119.528 405.686C-129.596 268.717 -14.9554 369.725 51.861 408.205Z" fill="#5CB5E2"/>
</g>
<g style="mix-blend-mode:multiply">
<path d="M739.703 500.053C702.863 489.059 667.624 473.254 630.326 463.405C522.321 434.317 398.985 452.641 304.939 391.486C480.417 383.288 656.249 386.961 831.232 402.479C846.206 402.869 860.966 406.135 874.709 412.099C912.236 431.11 948.619 485.852 907.202 514.483C872.878 538.99 775.857 510.818 739.703 500.053Z" fill="#5CB5E2"/>
</g>
<g style="mix-blend-mode:multiply">
<path d="M-107.172 129.229C-98.0192 120.755 -84.2899 125.794 -72.1622 131.062C74.5523 200.805 226.311 259.377 381.823 306.281C351.72 332.413 315.406 350.352 276.374 358.374C237.342 366.397 196.904 364.233 158.949 352.09C195.816 363.03 227.147 387.595 246.589 420.804C109.809 378.168 -22.5935 322.564 -148.818 254.746" fill="#5CB5E2"/>
</g>
</g>
</svg>
