<svg width="775" height="775" viewBox="0 0 775 775" fill="none" xmlns="http://www.w3.org/2000/svg">
<path opacity="0.33" d="M387.5 775C601.51 775 775 601.51 775 387.5C775 173.49 601.51 0 387.5 0C173.49 0 0 173.49 0 387.5C0 601.51 173.49 775 387.5 775Z" fill="#FFE01B"/>
<path d="M387.5 728.337C575.739 728.337 728.337 575.739 728.337 387.5C728.337 199.261 575.739 46.6633 387.5 46.6633C199.261 46.6633 46.6633 199.261 46.6633 387.5C46.6633 575.739 199.261 728.337 387.5 728.337Z" fill="#FFE01B"/>
<g style="mix-blend-mode:multiply">
<path d="M87.6883 484.987C98.732 512.519 110.398 539.739 122.686 566.648C128.048 579.908 135.191 592.375 143.918 603.707C155.117 617.045 170.282 626.416 185.448 634.815C230.408 660.145 277.753 680.985 326.799 697.033C348.07 704.033 369.846 710.254 392.244 711.188C405.9 711.572 419.558 710.53 432.997 708.077C482.664 699.705 529.667 679.771 570.209 649.883C610.75 619.995 643.695 580.991 666.382 536.022C689.069 491.053 700.863 441.378 700.81 391.011C700.758 340.643 688.861 290.993 666.08 246.071C661.647 237.283 656.475 228.339 648.309 222.739C640.143 217.14 628.127 216.09 620.817 222.739C616.736 226.988 614.143 232.446 613.428 238.294C610.551 254.976 614.595 272.047 613.778 288.846C612.962 305.645 604.796 324.66 588.386 328.782C571.354 333.059 554.205 319.527 536.823 321.744C516.524 324.349 505.208 346.436 500.309 366.268C496.181 382.934 494.092 400.039 494.087 417.209C494.087 432.413 495.681 447.929 491.598 462.628C488.71 472.994 483.108 482.401 475.37 489.879C467.632 497.356 458.038 502.634 447.58 505.166C437.121 507.699 426.177 507.394 415.875 504.284C405.573 501.175 396.288 495.372 388.978 487.476C380.073 477.793 374.318 465.233 364.13 456.912C356.065 450.667 346.078 447.422 335.883 447.734C325.687 448.047 315.918 451.896 308.25 458.623C298.684 467.489 293.707 480.243 284.919 489.731C268.664 507.736 240.2 512.208 217.879 502.681C195.558 493.153 179.654 471.338 174.288 447.618C171.877 437.002 171.332 425.803 166.744 415.887C162.155 405.971 151.734 397.532 141.079 399.866C135.596 401.032 130.074 404.96 124.825 402.86C122.182 401.574 120.076 399.399 118.875 396.716C113.042 385.867 113.781 372.84 114.675 360.591C115.57 348.342 116.231 335.276 110.281 324.504C84.3441 277.491 62.2957 348.536 61.2457 367.785C58.9904 408.421 72.9505 448.318 87.6883 484.987Z" fill="#FFE01B"/>
</g>
</svg>
