<svg width="760" height="760" viewBox="0 0 760 760" fill="none" xmlns="http://www.w3.org/2000/svg">
<mask id="mask0_50_3079" style="mask-type:luminance" maskUnits="userSpaceOnUse" x="0" y="0" width="760" height="760">
<path d="M274.472 14.9673C346.661 -5.91792 423.423 -4.92576 495.049 17.8181C566.675 40.562 629.947 84.036 676.863 142.742C723.78 201.448 752.232 272.748 758.623 347.626C765.014 422.504 749.057 497.595 712.769 563.403C676.481 629.211 621.492 682.779 554.757 717.333C488.022 751.887 412.537 765.874 337.852 757.526C263.167 749.177 192.636 718.868 135.178 670.431C77.7201 621.995 35.9161 557.606 15.0543 485.41C-12.9125 388.625 -1.29446 284.695 47.353 196.475C96.0004 108.254 177.696 42.9655 274.472 14.9673Z" fill="white"/>
</mask>
<g mask="url(#mask0_50_3079)">
<path d="M274.472 14.9673C346.661 -5.91792 423.423 -4.92576 495.049 17.8181C566.675 40.562 629.947 84.036 676.863 142.742C723.78 201.448 752.232 272.748 758.623 347.626C765.014 422.504 749.057 497.595 712.769 563.403C676.481 629.211 621.492 682.779 554.757 717.333C488.022 751.887 412.537 765.874 337.852 757.526C263.167 749.177 192.636 718.868 135.178 670.431C77.7201 621.995 35.9161 557.606 15.0543 485.41C-12.9125 388.625 -1.29446 284.695 47.353 196.475C96.0004 108.254 177.696 42.9655 274.472 14.9673Z" fill="#D47A2B"/>
<g style="mix-blend-mode:multiply">
<path d="M70.6152 622.96C97.6186 658.532 130.867 688.895 168.736 712.568C175.009 716.601 184.416 720.185 189.344 712.568C166.905 691.753 148.258 667.193 134.236 639.986C129.79 633.274 127.024 625.59 126.172 617.584C125.727 613.6 126.319 609.568 127.889 605.879C129.459 602.19 131.954 598.969 135.133 596.526C139.166 593.838 144.988 588.462 140.955 585.774C135.626 588.895 129.646 590.735 123.484 591.15C120.372 591.497 117.236 590.747 114.618 589.029C112.001 587.311 110.066 584.733 109.146 581.741C106.01 569.196 127.066 556.651 119.002 546.346C116.118 548.959 112.365 550.406 108.473 550.406C104.581 550.406 100.829 548.959 97.9451 546.346C95.6751 541.816 94.8046 536.713 95.4429 531.687C96.0812 526.66 98.2001 521.938 101.53 518.119C108.78 511.113 114.565 502.737 118.553 493.477C119.871 489.591 120.235 485.445 119.612 481.39C118.988 477.334 117.396 473.489 114.971 470.179C110.315 477.648 103.414 483.451 95.2569 486.756C91.1492 488.433 86.6465 488.903 82.2812 488.109C77.9158 487.316 73.8697 485.291 70.6152 482.276C67.5226 479.097 65.7914 474.837 65.7914 470.403C65.7914 465.968 67.5226 461.708 70.6152 458.529C67.0028 456.004 62.7006 454.65 58.293 454.65C53.8855 454.65 49.5833 456.004 45.9708 458.529C46.0679 451.552 44.5348 444.648 41.4915 438.368C39.716 435.385 36.9472 433.122 33.6705 431.975C30.3938 430.828 26.8171 430.87 23.5688 432.095C17.216 419.641 8.8955 408.295 -1.07291 398.492C-5.33832 438.833 -1.16827 479.62 11.1727 518.263C23.5137 556.905 43.7576 592.559 70.6152 622.96Z" fill="#D47A2B"/>
</g>
<g style="mix-blend-mode:multiply">
<path d="M259.241 777.533C264.618 774.845 270.442 770.813 270.442 764.988C270.442 759.164 264.617 753.787 258.793 751.995C252.493 751.099 246.326 749.444 240.424 747.066C243.112 740.794 251.178 739.002 257.898 736.314C264.619 733.625 269.545 724.665 264.169 720.184C258.792 715.704 257.001 720.184 253.865 717.048C252.876 716.087 252.091 714.938 251.554 713.668C251.017 712.398 250.739 711.034 250.739 709.655C250.739 708.276 251.017 706.911 251.554 705.641C252.091 704.372 252.876 703.223 253.865 702.262C257.988 698.481 263.129 695.989 268.651 695.093C266.905 691.229 264.154 687.902 260.688 685.46C257.221 683.017 253.164 681.548 248.937 681.204C240.673 680.6 232.447 679.554 224.295 678.068C218.893 676.144 213.994 673.024 209.966 668.942C205.938 664.86 202.884 659.921 201.032 654.493C199.18 649.065 198.576 643.289 199.268 637.596C199.96 631.903 201.931 626.44 205.03 621.615C206.304 619.315 208.376 617.562 210.855 616.686C218.471 616.686 222.951 625.647 230.12 630.128C237.289 634.608 247.592 630.128 256.553 633.264C263.89 636.366 270.939 640.115 277.612 644.465C285.229 648.049 296.878 644.465 297.326 637.296C305.839 637.296 311.215 628.336 313.903 619.823C316.592 611.31 321.968 601.901 330.481 603.245C338.994 604.59 341.234 613.102 347.955 615.342C354.676 617.582 362.738 612.654 368.115 607.278C377.807 600.615 385.676 591.629 390.998 581.141C396.32 570.652 398.927 558.997 398.581 547.24C391.861 547.24 385.142 544.104 381.558 537.831C378.814 531.289 375.515 524.994 371.7 519.014C368.87 516.928 366.443 514.348 364.532 511.397C359.604 502.436 369.46 492.131 377.973 485.858C382.937 481.755 389.031 479.256 395.447 478.69C406.648 478.69 414.712 488.547 419.192 498.852C422.138 509.625 427.503 519.585 434.875 527.974C443.836 535.591 456.379 536.039 466.236 541.416C477.256 548.303 485.382 558.978 489.086 571.434C492.408 583.865 494.213 596.653 494.462 609.518V614.446C496.386 629.561 494.698 644.916 489.535 659.251C486.503 666.55 481.088 672.606 474.172 676.43C467.255 680.255 459.246 681.622 451.452 680.309C451.932 685.543 453.865 690.539 457.031 694.734C460.197 698.93 464.47 702.158 469.372 704.055C474.74 704.501 480.134 704.501 485.501 704.055C494.767 705.25 503.286 709.77 509.467 716.776C515.649 723.782 519.072 732.795 519.104 742.138C518.829 751.445 516.426 760.565 512.076 768.798C507.727 777.03 501.547 784.157 494.014 789.63C478.93 800.566 462.12 808.896 444.282 814.272C370.689 846.382 288.823 854.381 210.406 837.123C192.497 832.059 175.752 823.534 161.12 812.032C153.845 806.323 147.498 799.522 142.303 791.87C136.479 781.117 135.584 778.429 146.337 778.877C164.706 778.877 182.628 789.63 202.342 789.182C221.931 789.492 241.35 785.517 259.241 777.533Z" fill="#D47A2B"/>
</g>
<g style="mix-blend-mode:multiply">
<path d="M114.523 351.448C116.104 339.331 119.581 327.537 124.827 316.501C130.83 301.957 140.018 288.944 151.711 278.418C168.213 267.164 187.057 259.809 206.82 256.912C211.384 255.809 216.145 255.809 220.709 256.912C224.84 258.196 228.656 260.332 231.91 263.184C242.004 271.255 250.511 281.13 257 292.307C252.519 292.307 248.04 292.307 244.008 287.826C237.424 284.715 230.231 283.101 222.948 283.101C215.666 283.101 208.476 284.715 201.892 287.826C188.85 294.226 177.142 303.044 167.392 313.813C159.167 321.711 152.349 330.954 147.229 341.143C142.2 351.902 140.635 363.956 142.75 375.643C143.896 385.988 149.042 395.474 157.088 402.077C161.116 405.232 165.985 407.127 171.086 407.526C176.187 407.924 181.291 406.808 185.76 404.317C186.541 407.826 186.129 411.495 184.587 414.742C183.045 417.989 180.463 420.627 177.25 422.239C139.167 441.952 111.835 381.467 114.523 351.448Z" fill="#D47A2B"/>
</g>
<g style="mix-blend-mode:multiply">
<path d="M621.257 699.128C615.493 702.803 608.827 704.818 601.992 704.952C587.206 704.952 580.935 684.342 583.175 669.557C588.103 635.954 616.778 612.208 636.043 584.429C657.996 552.573 668.281 514.117 665.164 475.555C664.991 470.522 663.609 465.604 661.134 461.218C650.829 445.985 625.289 456.737 609.159 448.225C602.727 443.668 597.999 437.095 595.727 429.547C593.454 421.998 593.768 413.908 596.616 406.557C601.096 391.324 610.504 378.331 615.433 361.753C619.036 354.258 620.022 345.771 618.236 337.649C616.449 329.528 611.993 322.24 605.577 316.949C601.147 314.843 596.942 312.291 593.03 309.332C589.684 304.774 587.809 299.303 587.654 293.651C587.654 280.658 587.654 268.112 584.966 255.119C581.474 233.338 571.473 213.123 556.28 197.13C541.087 181.137 521.411 170.115 499.837 165.511C492.69 163.273 485.031 163.273 477.884 165.511C468.027 169.543 461.756 179.848 451.451 183.432C445.264 184.537 438.89 183.909 433.039 181.615C427.187 179.322 422.082 175.454 418.293 170.44C410.229 161.479 404.853 149.83 396.788 140.421C387.539 130.421 375.364 123.604 362.004 120.948C348.644 118.292 334.785 119.933 322.415 125.635C298.221 137.285 283.435 163.271 260.585 177.608C258.859 179.047 256.849 180.108 254.689 180.725C252.529 181.342 250.264 181.502 248.039 181.193C242.214 181.193 239.078 174.024 234.598 170.44C230.176 166.741 224.783 164.393 219.062 163.678C213.342 162.963 207.537 163.911 202.34 166.407C191.83 171.408 182.392 178.408 174.559 187.017C135.487 226.081 99.3944 268.015 66.5826 312.468C61.2517 321.645 52.8382 328.631 42.8379 332.182C32.5329 332.182 20.4338 321.877 26.7063 313.365C19.6953 315.975 11.935 315.695 5.13015 312.587C-1.67473 309.478 -6.96751 303.795 -9.58485 296.787C-13.6978 282.135 -13.6978 266.634 -9.58485 251.983C-6.5614 223.585 0.689101 195.799 11.923 169.543C22.1933 149.581 35.8335 131.544 52.245 116.226C84.9725 85.9659 121.586 60.2013 161.119 39.6117C208.035 13.7241 256.69 -8.88186 306.732 -28.0429C360.216 -52.579 419.566 -61.4344 477.884 -53.5808C508.626 -45.9668 537.758 -32.9176 563.907 -15.0493C660.45 47.7487 730.575 143.809 760.969 254.896C791.363 365.984 779.913 484.364 728.788 587.565C717.055 610.991 701.961 632.576 683.984 651.636C665.997 670.994 644.769 687.066 621.257 699.128Z" fill="#D47A2B"/>
</g>
</g>
</svg>
